<svg xmlns="http://www.w3.org/2000/svg" viewBox="0 0 512 512">
  <!-- White R lettermark (upper-center, scaled to ~58%) -->
  <g transform="translate(108, 30) scale(0.575)">
    <path fill-rule="evenodd" d="
      M 80 448 V 64 H 292
      C 408 64, 440 120, 440 192
      C 440 268, 396 308, 312 316
      L 432 448 H 340 L 228 324 H 164 V 448 Z
      M 164 140 H 278
      C 348 140, 364 168, 364 196
      C 364 224, 348 252, 278 252 H 164 Z
    " fill="#FFFFFF"/>
  </g>
  <!-- Green heartbeat ECG line (lower third) -->
  <g transform="translate(0, 360)">
    <polyline points="
      20,0 120,0
      130,-7.5 137.5,4 144,0
      160,0
      169,12.5 181,-60 195,32.5 205,-5 212.5,0
      240,0
      252.5,-20 265,0
      290,0
      299,11 310,-55 324,29 334,-4 341,0
      365,0
      376,-17.5 387.5,0
      492,0
    " fill="none" stroke="#4ADE80" stroke-width="2.5" stroke-linecap="round" stroke-linejoin="round"/>
  </g>
</svg>
