<svg xmlns="http://www.w3.org/2000/svg" viewBox="0 0 512 512">
  <defs>
    <linearGradient id="diagGrad" x1="0" y1="0" x2="1" y2="1">
      <stop offset="0" stop-color="#9B8CFF" stop-opacity="0.35"/>
      <stop offset="0.4" stop-color="#7869F0" stop-opacity="0.15"/>
      <stop offset="0.6" stop-color="#5A4BD2" stop-opacity="0.15"/>
      <stop offset="1" stop-color="#5041C8" stop-opacity="0.3"/>
    </linearGradient>
    <radialGradient id="shineGrad" cx="0.27" cy="0.2" r="0.6">
      <stop offset="0" stop-color="white" stop-opacity="0.18"/>
      <stop offset="0.3" stop-color="white" stop-opacity="0.08"/>
      <stop offset="0.7" stop-color="white" stop-opacity="0.02"/>
      <stop offset="1" stop-color="white" stop-opacity="0"/>
    </radialGradient>
    <clipPath id="topLeft">
      <polygon points="0,0 512,0 0,512"/>
    </clipPath>
  </defs>
  <!-- Background: darker purple base -->
  <rect width="512" height="512" fill="#6B5CE7"/>
  <!-- Lighter top-left triangle -->
  <rect width="512" height="512" fill="#8B7CF6" clip-path="url(#topLeft)"/>
  <!-- Diagonal gradient overlay -->
  <rect width="512" height="512" fill="url(#diagGrad)"/>
  <!-- Glass shine -->
  <rect width="512" height="512" fill="url(#shineGrad)"/>
  <!-- White R lettermark (centered, smaller) -->
  <g transform="translate(138, 90) scale(0.425)">
    <path fill-rule="evenodd" d="
      M 80 448 V 64 H 292
      C 408 64, 440 120, 440 192
      C 440 268, 396 308, 312 316
      L 432 448 H 340 L 228 324 H 164 V 448 Z
      M 164 140 H 278
      C 348 140, 364 168, 364 196
      C 364 224, 348 252, 278 252 H 164 Z
    " fill="white"/>
  </g>
  <!-- Green heartbeat ECG line -->
  <g transform="translate(0, 350)">
    <polyline points="
      50,0 125,0
      135,-6 142.5,3 149,0
      170,0
      179,11 191,-55 205,27.5 215,-4 222.5,0
      250,0
      262.5,-17.5 275,0
      295,0
      304,10 316,-50 330,25 340,-3 347,0
      370,0
      381,-15 392.5,0
      462,0
    " fill="none" stroke="#4ADE80" stroke-width="2.5" stroke-linecap="round" stroke-linejoin="round"/>
  </g>
</svg>
