<svg xmlns="http://www.w3.org/2000/svg" viewBox="0 0 512 512">
  <!-- White R lettermark (centered, smaller) -->
  <g transform="translate(138, 90) scale(0.425)">
    <path fill-rule="evenodd" d="
      M 80 448 V 64 H 292
      C 408 64, 440 120, 440 192
      C 440 268, 396 308, 312 316
      L 432 448 H 340 L 228 324 H 164 V 448 Z
      M 164 140 H 278
      C 348 140, 364 168, 364 196
      C 364 224, 348 252, 278 252 H 164 Z
    " fill="#FFFFFF"/>
  </g>
  <!-- Green heartbeat ECG line -->
  <g transform="translate(0, 350)">
    <polyline points="
      50,0 125,0
      135,-6 142.5,3 149,0
      170,0
      179,11 191,-55 205,27.5 215,-4 222.5,0
      250,0
      262.5,-17.5 275,0
      295,0
      304,10 316,-50 330,25 340,-3 347,0
      370,0
      381,-15 392.5,0
      462,0
    " fill="none" stroke="#4ADE80" stroke-width="2.5" stroke-linecap="round" stroke-linejoin="round"/>
  </g>
</svg>
